<?xml version="1.0" encoding="utf-8"?>
<!-- Generator: Adobe Illustrator 23.0.6, SVG Export Plug-In . SVG Version: 6.00 Build 0)  -->
<svg version="1.1" id="Слой_1" xmlns="http://www.w3.org/2000/svg" xmlns:xlink="http://www.w3.org/1999/xlink" x="0px" y="0px"
	 viewBox="0 0 241.3 398.4" style="enable-background:new 0 0 241.3 398.4;" xml:space="preserve">
<style type="text/css">
	.st0{fill:#99CC33;}
</style>
<title>Безымянный-1</title>
<path class="st0" d="M124.3,294.4c-27.1,0-49-21.9-49-49V134c0-20.6,16.7-37.3,37.3-37.4h18.2c20.6,0,37.3,16.7,37.3,37.4v116.5
	C168.2,274.7,148.5,294.3,124.3,294.4z M112.7,101.7c-17.9,0-32.3,14.5-32.3,32.4v111.3c0,24.3,19.7,44,44,44
	c21.5,0,38.8-17.4,38.9-38.9V134c0-17.9-14.5-32.3-32.3-32.4H112.7z"/>
<rect x="81.4" y="319.2" transform="matrix(1.605631e-02 -0.9999 0.9999 1.605631e-02 -212.1976 427.684)" class="st0" width="59.5" height="5"/>
<rect x="102.5" y="319.7" transform="matrix(1.605631e-02 -0.9999 0.9999 1.605631e-02 -191.9589 449.3128)" class="st0" width="59.5" height="5"/>
<path class="st0" d="M141.5,369h-41.3c-5.5,0-9.9-4.4-9.9-9.9s4.4-9.9,9.9-9.9h41.3c5.5,0,9.9,4.4,9.9,9.9S146.9,369,141.5,369
	L141.5,369z M100.1,354.3c-2.7,0-4.9,2.2-4.9,4.9s2.2,4.9,4.9,4.9h41.3c2.7,0,4.9-2.2,4.9-4.9s-2.2-4.9-4.9-4.9H100.1z"/>
<path class="st0" d="M132.1,376.2h-21.8c-3.4,0-6.1-2.7-6.1-6.1c0-3.4,2.7-6.1,6.1-6.1h21.8c3.4,0,6.1,2.7,6.1,6.1
	C138.2,373.5,135.5,376.2,132.1,376.2z M110.4,369c-0.6,0-1.1,0.5-1.1,1.1c0,0.6,0.5,1.1,1.1,1.1l0,0h21.8c0.6,0,1.1-0.5,1.1-1.1
	c0-0.6-0.5-1.1-1.1-1.1H110.4z"/>
<path class="st0" d="M183.6,398.4h-125c-6,0-11-4-11-8.8v-3.8c0-2.5,2.3-3.7,10.2-5.8c4.6-1.2,11.2-2.6,18.9-4
	c12.9-2.4,28.3-4.7,31-4.7h26.6c2.8,0,18.1,2.3,31,4.7c7.7,1.4,14.3,2.8,18.9,4c7.9,2,10.2,3.3,10.2,5.8v3.8
	C194.5,394.4,189.6,398.4,183.6,398.4z M52.6,386.8v2.8c0,2,2.8,3.8,6,3.8h125c3.2,0,6-1.8,6-3.8v-2.8c-6.7-3.3-50.8-10.6-55.2-10.6
	h-26.6C103.4,376.2,59.3,383.5,52.6,386.8L52.6,386.8z"/>
<rect x="87.7" y="127.2" class="st0" width="67.8" height="5"/>
<rect x="87.7" y="145.2" class="st0" width="67.8" height="5"/>
<rect x="87.7" y="163.4" class="st0" width="67.3" height="5"/>
<rect x="101.2" y="222.2" class="st0" width="5" height="65.6"/>
<rect x="119.3" y="222.4" class="st0" width="5" height="67.8"/>
<rect x="137.5" y="222.2" class="st0" width="5" height="67.2"/>
<rect x="102" y="178.1" class="st0" width="39.8" height="5"/>
<rect x="111.6" y="190.1" class="st0" width="21.5" height="5"/>
<path class="st0" d="M44.4,197.9H44c-24.7-2.1-44.4-27.2-44-55.8c0.4-27.1,17.7-50.4,40.1-54c2.3-0.4,4.6,0.3,6.3,1.8
	c1.8,1.5,2.8,3.8,2.8,6.1v97.1c0,1.4-0.6,2.6-1.6,3.6C46.7,197.5,45.6,197.9,44.4,197.9z M41.4,93h-0.5C20.9,96.2,5.4,117.3,5,142.1
	c-0.4,26,17.1,48.7,39.2,50.7V96c0-0.9-0.3-1.7-1-2.3C42.7,93.2,42,92.9,41.4,93L41.4,93z"/>
<rect x="31.1" y="92.4" class="st0" width="5" height="100.9"/>
<path class="st0" d="M196.9,197.9c-1.2,0-2.3-0.5-3.2-1.3c-1-0.9-1.6-2.2-1.6-3.6V96c0-2.3,1-4.6,2.8-6.1c1.7-1.5,4.1-2.2,6.3-1.8
	c22.4,3.6,39.7,26.9,40.1,54c0.5,28.7-19.3,53.7-44,55.8L196.9,197.9z M199.9,93c-0.7,0-1.3,0.2-1.8,0.7c-0.7,0.6-1,1.4-1,2.3v97
	c22-2,39.6-24.7,39.2-50.7c-0.4-24.8-15.8-45.9-35.9-49.2L199.9,93z"/>
<rect x="205.2" y="92.4" class="st0" width="5" height="100.9"/>
<path class="st0" d="M33.5,84.4c-1.4,0-2.5-1.1-2.5-2.5c0-23.8,6-42.7,17.8-56.2C63.8,8.6,87.9,0,120.7,0c1.4,0,2.5,1.1,2.5,2.5
	S122,5,120.7,5C64.5,5,36,30.9,36,81.9C36.1,83.2,34.9,84.4,33.5,84.4C33.6,84.4,33.6,84.4,33.5,84.4z"/>
<path class="st0" d="M33.6,84.4c-1.4,0-2.5-1.1-2.5-2.5c0-0.9,0.5-1.8,1.3-2.2l11-5.8c0.5-0.3,0.7-0.6,0.7-0.8
	c0.8-24.4,10.4-42.2,28.4-53c15.8-9.4,34.8-11.4,48.1-11.3c1.4,0,2.5,1.1,2.5,2.5s-1.1,2.5-2.5,2.5h-0.3c-26,0-69.4,7.8-71.2,59.5
	c-0.1,2.2-1.4,4.1-3.4,5.1l-11,5.8C34.4,84.3,34,84.4,33.6,84.4z"/>
<path class="st0" d="M207.9,84.4c-1.4,0-2.5-1.1-2.5-2.5c0,0,0,0,0,0c0-35.1-14.7-76.9-84.6-76.9c-1.4,0-2.5-1.1-2.5-2.5
	s1.1-2.5,2.5-2.5c32,0,55.9,8.6,71,25.6c12.3,13.8,18.6,32.8,18.6,56.3C210.4,83.2,209.3,84.3,207.9,84.4z"/>
<path class="st0" d="M207.9,84.4c-0.4,0-0.8-0.1-1.2-0.3l-11-5.8c-2-0.9-3.3-2.9-3.4-5.1c-1.8-53.6-50.2-59.5-71.2-59.5h-0.3
	c-1.4,0-2.5-1.1-2.5-2.5s1.1-2.5,2.5-2.5c10.5,0,30.5,1.4,47.4,11.3c18.5,10.9,28.3,28.7,29.1,53c0,0.2,0.2,0.5,0.7,0.8l11.1,5.8
	c1.2,0.6,1.7,2.2,1,3.4C209.7,83.8,208.9,84.4,207.9,84.4L207.9,84.4z"/>
</svg>
